<svg width="202" height="47" viewBox="0 0 202 47" fill="none" xmlns="http://www.w3.org/2000/svg">
<path d="M88.1055 4.88392C101.321 3.77112 111.801 11.6414 110.47 25.6045C109.645 34.251 101.994 41.5219 93.3832 42.1401C65.2775 44.1596 63.4605 6.95838 88.1055 4.88392ZM86.5478 21.4813V29.6229H94.91V21.4813C94.91 21.4693 94.9065 21.4573 94.9065 21.4453C94.9065 21.423 94.91 21.4006 94.91 21.3783C94.91 19.2575 93.1908 17.5265 91.0166 17.3839C90.9084 17.3616 90.5546 17.3839 90.4412 17.3839C88.267 17.5265 86.5478 19.2575 86.5478 21.3783C86.5478 21.4006 86.5513 21.423 86.5513 21.4453C86.5513 21.4573 86.5478 21.4693 86.5478 21.4813Z" fill="#FD3907"/>
<path d="M42.2195 21.1911C41.4981 11.8526 34.0239 6.2646 25.1105 5.49698L4.29187 5.50557V42.2019C17.9368 42.2019 19.4636 37.5018 19.4636 37.5018V41.5872C31.9115 42.4183 43.2534 34.6013 42.2177 21.1911H42.2195ZM27.8635 29.6229H19.5443V21.3045L23.7039 17.1452L27.8635 21.3045V29.6229Z" fill="#FD3907"/>
<path d="M175.229 4.88392C150.584 6.95838 152.399 44.1596 180.506 42.1401C189.118 41.5219 196.769 34.251 197.593 25.6045C198.924 11.6414 188.446 3.76941 175.229 4.8822V4.88392ZM182.033 27.8593V29.75H173.671V21.2942C175.9 21.2942 177.661 19.2249 177.81 17.25C177.959 19.2249 179.811 21.2942 182.033 21.2942V22.0772V27.8593Z" fill="#FD3907"/>
<path d="M67.0242 5.49698H51.5691V19.2386C51.5691 29.0768 56.0258 29.6229 56.0258 29.6229H49.6988C49.4841 29.6487 49.2626 29.647 49.0445 29.6229H46.9595V41.7675H55.6531C57.8377 41.7675 59.9965 41.187 61.8359 40.0107C65.1333 37.9036 66.8147 34.4124 67.0276 29.8805L67.0242 5.4987V5.49698Z" fill="#FD3907"/>
<path d="M133.466 21.4195H133.372V29.5748H141.945C135.108 30.4816 131.905 33.7032 131.905 33.7032H131.817C127.376 32.0116 127.376 25.7522 127.376 25.5942C127.376 16.266 135.038 16.5717 138.77 18.5345L138.8 18.5036L138.902 18.4057L147.851 9.81763C142.744 5.31151 135.534 3.82092 128.417 5.37849C110.97 9.19426 108.811 31.9653 123.352 39.7583C123.945 40.076 124.568 40.3662 125.217 40.6324C125.372 40.6959 125.525 40.7611 125.681 40.8213C132.243 43.325 140.992 42.4595 146.543 38.211C152.358 33.7581 153.234 26.9594 153.431 21.423C153.431 21.423 133.463 21.4281 133.463 21.423L133.466 21.4195Z" fill="#FD3907"/>
</svg>
