<svg width="16" height="16" viewBox="0 0 16 16" fill="none" xmlns="http://www.w3.org/2000/svg">
<path d="M14.6574 4.85536C16.0672 3.44555 16.4241 1.51665 15.4537 0.546297C14.4834 -0.424053 12.5545 -0.0671777 11.1446 1.34263C10.0106 2.47667 9.55787 3.94842 9.93097 4.98513L0.224522 14.6916C-0.0748416 14.9909 -0.0748416 15.4761 0.224522 15.7755C0.523885 16.0748 1.00906 16.0748 1.30842 15.7755L11.0149 6.06903C12.0516 6.44213 13.5219 5.9894 14.6574 4.85536ZM14.4096 4.11949C13.395 5.13408 12.0059 5.39067 11.3083 4.69314C10.6108 3.99561 10.8674 2.60645 11.882 1.59186C12.8966 0.577265 14.2857 0.32067 14.9833 1.0182C15.6808 1.71573 15.4242 3.1049 14.4096 4.11949Z" fill="white"/>
</svg>
