<svg width="16" height="16" viewBox="0 0 16 16" fill="none" xmlns="http://www.w3.org/2000/svg">
<path d="M0.132569 14.0725L7.58247 6.62264L5.28589 4.32606C4.97137 4.01154 4.97137 3.50205 5.28589 3.18752L8.23752 0.235896C8.55205 -0.0786321 9.06153 -0.0786321 9.37606 0.235896L11.6726 2.53247L11.9898 2.21534C12.1665 2.03858 12.4525 2.03858 12.6292 2.21534L13.7847 3.37078C13.9614 3.54754 13.9614 3.83347 13.7847 4.01023L13.4675 4.32736L15.7641 6.62394C16.0786 6.93847 16.0786 7.44795 15.7641 7.76248L12.8125 10.7141C12.4979 11.0286 11.9885 11.0286 11.6739 10.7141L9.37736 8.41753L1.92746 15.8674C1.7507 16.0442 1.46477 16.0442 1.28801 15.8674L0.132569 14.712C-0.0441914 14.5352 -0.0441914 14.2493 0.132569 14.0725Z" fill="white"/>
</svg>
