<svg width="34" height="32" viewBox="0 0 34 32" fill="none" xmlns="http://www.w3.org/2000/svg">
<path d="M16.7998 14.1604H16.7194V21.1011H24.0195C18.1978 21.8728 15.4705 24.6146 15.4705 24.6146H15.396C11.6143 23.175 11.6143 17.8478 11.6143 17.7133C11.6143 9.77444 18.1379 10.0346 21.3156 11.7051L21.3419 11.6788L21.4282 11.5955L29.0486 4.28648C24.6995 0.451482 18.5605 -0.817106 12.5005 0.508481C-2.35565 3.75595 -4.19384 23.1355 8.18797 29.7679C8.69248 30.0382 9.22332 30.2852 9.77609 30.5118C9.9077 30.5658 10.0379 30.6214 10.1709 30.6725C15.7586 32.8034 23.2079 32.0668 27.9342 28.451C32.8858 24.6614 33.6316 18.8752 33.7998 14.1633C33.7998 14.1633 16.7969 14.1677 16.7969 14.1633L16.7998 14.1604Z" fill="#FFF482"/>
</svg>
